<svg width="52" height="77" viewBox="0 0 52 77" fill="none" xmlns="http://www.w3.org/2000/svg">
<path d="M6.27133 44V15.572L10.9173 19.988H0.751328V11.8H17.1273V44H6.27133ZM38.3779 44.736C35.3112 44.736 32.6126 44.1533 30.2819 42.988C27.9819 41.792 26.1726 40.0287 24.8539 37.698C23.5659 35.3367 22.9219 32.408 22.9219 28.912C22.9219 25.14 23.6732 21.9353 25.1759 19.298C26.6786 16.63 28.7639 14.5907 31.4319 13.18C34.1306 11.7693 37.2432 11.064 40.7699 11.064C42.6712 11.064 44.4959 11.294 46.2439 11.754C48.0226 12.1833 49.5252 12.7967 50.7519 13.594L46.8419 21.184C45.8912 20.5093 44.9252 20.0647 43.9439 19.85C42.9932 19.6047 42.0119 19.482 40.9999 19.482C38.8226 19.482 37.0746 20.1413 35.7559 21.46C34.4679 22.748 33.8239 24.634 33.8239 27.118C33.8239 27.578 33.8239 28.038 33.8239 28.498C33.8239 28.9273 33.8239 29.372 33.8239 29.832L31.3399 28.038C31.9532 26.9953 32.6739 26.1213 33.5019 25.416C34.3299 24.68 35.3112 24.128 36.4459 23.76C37.5806 23.3613 38.8992 23.162 40.4019 23.162C42.3646 23.162 44.1739 23.5913 45.8299 24.45C47.5166 25.278 48.8659 26.4587 49.8779 27.992C50.9206 29.5253 51.4419 31.35 51.4419 33.466C51.4419 35.766 50.8592 37.7593 49.6939 39.446C48.5286 41.1327 46.9492 42.436 44.9559 43.356C42.9932 44.276 40.8006 44.736 38.3779 44.736ZM37.6419 37.238C38.2859 37.238 38.8532 37.1153 39.3439 36.87C39.8652 36.594 40.2639 36.2107 40.5399 35.72C40.8159 35.2293 40.9539 34.6467 40.9539 33.972C40.9539 32.96 40.6472 32.1627 40.0339 31.58C39.4206 30.9667 38.6232 30.66 37.6419 30.66C36.9979 30.66 36.4306 30.798 35.9399 31.074C35.4492 31.35 35.0506 31.7333 34.7439 32.224C34.4679 32.7147 34.3299 33.2973 34.3299 33.972C34.3299 34.6467 34.4679 35.2293 34.7439 35.72C35.0506 36.2107 35.4492 36.594 35.9399 36.87C36.4306 37.1153 36.9979 37.238 37.6419 37.238Z" fill="#131313"/>
<path d="M20.3853 74.07C19.6573 74.07 19.0039 73.9113 18.4253 73.594C17.8559 73.2673 17.4079 72.824 17.0813 72.264C16.7546 71.6947 16.5913 71.046 16.5913 70.318C16.5913 69.5807 16.7546 68.932 17.0813 68.372C17.4079 67.812 17.8559 67.3733 18.4253 67.056C19.0039 66.7387 19.6573 66.58 20.3853 66.58C21.0106 66.58 21.5753 66.7013 22.0793 66.944C22.5833 67.1867 22.9799 67.5507 23.2693 68.036L22.5273 68.54C22.2753 68.1667 21.9626 67.8913 21.5893 67.714C21.2159 67.5367 20.8099 67.448 20.3713 67.448C19.8486 67.448 19.3773 67.5693 18.9573 67.812C18.5373 68.0453 18.2059 68.3767 17.9633 68.806C17.7206 69.2353 17.5993 69.7393 17.5993 70.318C17.5993 70.8967 17.7206 71.4007 17.9633 71.83C18.2059 72.2593 18.5373 72.5953 18.9573 72.838C19.3773 73.0713 19.8486 73.188 20.3713 73.188C20.8099 73.188 21.2159 73.0993 21.5893 72.922C21.9626 72.7447 22.2753 72.474 22.5273 72.11L23.2693 72.614C22.9799 73.09 22.5833 73.454 22.0793 73.706C21.5753 73.9487 21.0106 74.07 20.3853 74.07ZM29.8279 74V72.376L29.7859 72.11V69.394C29.7859 68.7687 29.6086 68.288 29.2539 67.952C28.9086 67.616 28.3906 67.448 27.6999 67.448C27.2239 67.448 26.7713 67.5273 26.3419 67.686C25.9126 67.8447 25.5486 68.0547 25.2499 68.316L24.8019 67.574C25.1753 67.2567 25.6233 67.014 26.1459 66.846C26.6686 66.6687 27.2193 66.58 27.7979 66.58C28.7499 66.58 29.4826 66.818 29.9959 67.294C30.5186 67.7607 30.7799 68.4747 30.7799 69.436V74H29.8279ZM27.2939 74.07C26.7433 74.07 26.2626 73.9813 25.8519 73.804C25.4506 73.6173 25.1426 73.3653 24.9279 73.048C24.7133 72.7213 24.6059 72.348 24.6059 71.928C24.6059 71.5453 24.6946 71.2 24.8719 70.892C25.0586 70.5747 25.3573 70.3227 25.7679 70.136C26.1879 69.94 26.7479 69.842 27.4479 69.842H29.9819V70.584H27.4759C26.7666 70.584 26.2719 70.71 25.9919 70.962C25.7213 71.214 25.5859 71.5267 25.5859 71.9C25.5859 72.32 25.7493 72.656 26.0759 72.908C26.4026 73.16 26.8599 73.286 27.4479 73.286C28.0079 73.286 28.4886 73.16 28.8899 72.908C29.3006 72.6467 29.5993 72.2733 29.7859 71.788L30.0099 72.474C29.8233 72.9593 29.4966 73.3467 29.0299 73.636C28.5726 73.9253 27.9939 74.07 27.2939 74.07ZM33.6478 74V65.726C33.6478 65.0727 33.8391 64.5453 34.2218 64.144C34.6044 63.7427 35.1551 63.542 35.8738 63.542C36.1538 63.542 36.4244 63.5793 36.6858 63.654C36.9471 63.7287 37.1664 63.8453 37.3438 64.004L37.0078 64.746C36.8678 64.6247 36.7044 64.536 36.5178 64.48C36.3311 64.4147 36.1304 64.382 35.9158 64.382C35.4958 64.382 35.1738 64.4987 34.9498 64.732C34.7258 64.9653 34.6138 65.3107 34.6138 65.768V66.888L34.6418 67.35V74H33.6478ZM32.3318 67.476V66.65H36.8818V67.476H32.3318ZM41.2228 74.07C40.4575 74.07 39.7855 73.9113 39.2068 73.594C38.6282 73.2673 38.1755 72.824 37.8488 72.264C37.5222 71.6947 37.3588 71.046 37.3588 70.318C37.3588 69.59 37.5128 68.946 37.8208 68.386C38.1382 67.826 38.5675 67.3873 39.1088 67.07C39.6595 66.7433 40.2755 66.58 40.9568 66.58C41.6475 66.58 42.2588 66.7387 42.7908 67.056C43.3322 67.364 43.7568 67.8027 44.0648 68.372C44.3728 68.932 44.5268 69.5807 44.5268 70.318C44.5268 70.3647 44.5222 70.416 44.5128 70.472C44.5128 70.5187 44.5128 70.57 44.5128 70.626H38.1148V69.884H43.9808L43.5888 70.178C43.5888 69.646 43.4722 69.1747 43.2388 68.764C43.0148 68.344 42.7068 68.0173 42.3148 67.784C41.9228 67.5507 41.4702 67.434 40.9568 67.434C40.4528 67.434 40.0002 67.5507 39.5988 67.784C39.1975 68.0173 38.8848 68.344 38.6608 68.764C38.4368 69.184 38.3248 69.6647 38.3248 70.206V70.36C38.3248 70.92 38.4462 71.4147 38.6888 71.844C38.9408 72.264 39.2862 72.5953 39.7248 72.838C40.1728 73.0713 40.6815 73.188 41.2508 73.188C41.6988 73.188 42.1142 73.1087 42.4968 72.95C42.8888 72.7913 43.2248 72.5487 43.5048 72.222L44.0648 72.866C43.7382 73.258 43.3275 73.5567 42.8328 73.762C42.3475 73.9673 41.8108 74.07 41.2228 74.07ZM48.5241 74.07C47.9174 74.07 47.3434 73.986 46.8021 73.818C46.2607 73.6407 45.8361 73.4213 45.5281 73.16L45.9761 72.376C46.2747 72.6 46.6574 72.796 47.1241 72.964C47.5907 73.1227 48.0807 73.202 48.5941 73.202C49.2941 73.202 49.7981 73.0947 50.1061 72.88C50.4141 72.656 50.5681 72.362 50.5681 71.998C50.5681 71.7273 50.4794 71.5173 50.3021 71.368C50.1341 71.2093 49.9101 71.0927 49.6301 71.018C49.3501 70.934 49.0374 70.864 48.6921 70.808C48.3467 70.752 48.0014 70.6867 47.6561 70.612C47.3201 70.5373 47.0121 70.43 46.7321 70.29C46.4521 70.1407 46.2234 69.94 46.0461 69.688C45.8781 69.436 45.7941 69.1 45.7941 68.68C45.7941 68.2787 45.9061 67.9193 46.1301 67.602C46.3541 67.2847 46.6807 67.0373 47.1101 66.86C47.5487 66.6733 48.0807 66.58 48.7061 66.58C49.1821 66.58 49.6581 66.6453 50.1341 66.776C50.6101 66.8973 51.0021 67.0607 51.3101 67.266L50.8761 68.064C50.5494 67.84 50.1994 67.6813 49.8261 67.588C49.4527 67.4853 49.0794 67.434 48.7061 67.434C48.0434 67.434 47.5534 67.5507 47.2361 67.784C46.9281 68.008 46.7741 68.2973 46.7741 68.652C46.7741 68.932 46.8581 69.1513 47.0261 69.31C47.2034 69.4687 47.4321 69.5947 47.7121 69.688C48.0014 69.772 48.3141 69.842 48.6501 69.898C48.9954 69.954 49.3361 70.024 49.6721 70.108C50.0174 70.1827 50.3301 70.29 50.6101 70.43C50.8994 70.5607 51.1281 70.752 51.2961 71.004C51.4734 71.2467 51.5621 71.5687 51.5621 71.97C51.5621 72.3993 51.4407 72.7727 51.1981 73.09C50.9647 73.398 50.6194 73.6407 50.1621 73.818C49.7141 73.986 49.1681 74.07 48.5241 74.07Z" fill="#FCFCFC"/>
</svg>
