<svg width="79" height="77" viewBox="0 0 79 77" fill="none" xmlns="http://www.w3.org/2000/svg">
<path d="M22.2058 44V37.33L33.8438 26.566C34.5798 25.8607 35.1165 25.2473 35.4538 24.726C35.8218 24.2047 36.0671 23.7447 36.1898 23.346C36.3125 22.9167 36.3738 22.518 36.3738 22.15C36.3738 21.3527 36.1131 20.7393 35.5918 20.31C35.0705 19.85 34.2885 19.62 33.2458 19.62C32.2951 19.62 31.3905 19.8807 30.5318 20.402C29.6731 20.8927 28.9985 21.6287 28.5078 22.61L20.3198 18.516C21.4851 16.308 23.2331 14.514 25.5638 13.134C27.8945 11.754 30.7925 11.064 34.2578 11.064C36.8031 11.064 39.0571 11.478 41.0198 12.306C42.9825 13.134 44.5158 14.2993 45.6198 15.802C46.7238 17.3047 47.2758 19.0833 47.2758 21.138C47.2758 22.1807 47.1378 23.2233 46.8618 24.266C46.6165 25.3087 46.0951 26.4127 45.2978 27.578C44.5005 28.7127 43.3198 29.9853 41.7558 31.396L33.0158 39.354L31.3138 35.582H48.0118V44H22.2058ZM63.1641 44.736C60.9561 44.736 58.7175 44.4907 56.4481 44C54.1788 43.5093 52.1855 42.7887 50.4681 41.838L54.1481 33.834C55.5281 34.6313 56.9695 35.2293 58.4721 35.628C60.0055 35.996 61.4468 36.18 62.7961 36.18C64.0228 36.18 65.0195 35.9807 65.7861 35.582C66.5835 35.1527 66.9821 34.524 66.9821 33.696C66.9821 32.9907 66.6908 32.454 66.1081 32.086C65.5255 31.6873 64.5441 31.488 63.1641 31.488H58.8861V24.818L67.2121 16.354L68.1781 19.988H52.1241V11.8H76.1361V18.47L67.8101 26.934L62.6121 23.99H65.4641C69.5121 23.99 72.5941 24.8947 74.7101 26.704C76.8261 28.5133 77.8841 30.844 77.8841 33.696C77.8841 35.536 77.3628 37.2993 76.3201 38.986C75.3081 40.6727 73.7135 42.0527 71.5361 43.126C69.3895 44.1993 66.5988 44.736 63.1641 44.736Z" fill="#131313"/>
<path d="M1.7083 74V65.726C1.7083 65.0727 1.89963 64.5453 2.2823 64.144C2.66496 63.7427 3.21563 63.542 3.9343 63.542C4.2143 63.542 4.48496 63.5793 4.7463 63.654C5.00763 63.7287 5.22696 63.8453 5.4043 64.004L5.0683 64.746C4.9283 64.6247 4.76496 64.536 4.5783 64.48C4.39163 64.4147 4.19096 64.382 3.9763 64.382C3.5563 64.382 3.2343 64.4987 3.0103 64.732C2.7863 64.9653 2.6743 65.3107 2.6743 65.768V66.888L2.7023 67.35V74H1.7083ZM0.392297 67.476V66.65H4.9423V67.476H0.392297ZM9.15739 74.07C8.44806 74.07 7.80872 73.9113 7.23939 73.594C6.67939 73.2673 6.23606 72.824 5.90939 72.264C5.58272 71.6947 5.41939 71.046 5.41939 70.318C5.41939 69.5807 5.58272 68.932 5.90939 68.372C6.23606 67.812 6.67939 67.3733 7.23939 67.056C7.79939 66.7387 8.43872 66.58 9.15739 66.58C9.88539 66.58 10.5294 66.7387 11.0894 67.056C11.6587 67.3733 12.1021 67.812 12.4194 68.372C12.7461 68.932 12.9094 69.5807 12.9094 70.318C12.9094 71.046 12.7461 71.6947 12.4194 72.264C12.1021 72.824 11.6587 73.2673 11.0894 73.594C10.5201 73.9113 9.87606 74.07 9.15739 74.07ZM9.15739 73.188C9.68939 73.188 10.1607 73.0713 10.5714 72.838C10.9821 72.5953 11.3041 72.2593 11.5374 71.83C11.7801 71.3913 11.9014 70.8873 11.9014 70.318C11.9014 69.7393 11.7801 69.2353 11.5374 68.806C11.3041 68.3767 10.9821 68.0453 10.5714 67.812C10.1607 67.5693 9.69406 67.448 9.17139 67.448C8.64872 67.448 8.18206 67.5693 7.77139 67.812C7.36072 68.0453 7.03406 68.3767 6.79139 68.806C6.54872 69.2353 6.42739 69.7393 6.42739 70.318C6.42739 70.8873 6.54872 71.3913 6.79139 71.83C7.03406 72.2593 7.36072 72.5953 7.77139 72.838C8.18206 73.0713 8.64406 73.188 9.15739 73.188ZM17.9347 74.07C17.2254 74.07 16.5861 73.9113 16.0167 73.594C15.4567 73.2673 15.0134 72.824 14.6867 72.264C14.3601 71.6947 14.1967 71.046 14.1967 70.318C14.1967 69.5807 14.3601 68.932 14.6867 68.372C15.0134 67.812 15.4567 67.3733 16.0167 67.056C16.5767 66.7387 17.2161 66.58 17.9347 66.58C18.6627 66.58 19.3067 66.7387 19.8667 67.056C20.4361 67.3733 20.8794 67.812 21.1967 68.372C21.5234 68.932 21.6867 69.5807 21.6867 70.318C21.6867 71.046 21.5234 71.6947 21.1967 72.264C20.8794 72.824 20.4361 73.2673 19.8667 73.594C19.2974 73.9113 18.6534 74.07 17.9347 74.07ZM17.9347 73.188C18.4667 73.188 18.9381 73.0713 19.3487 72.838C19.7594 72.5953 20.0814 72.2593 20.3147 71.83C20.5574 71.3913 20.6787 70.8873 20.6787 70.318C20.6787 69.7393 20.5574 69.2353 20.3147 68.806C20.0814 68.3767 19.7594 68.0453 19.3487 67.812C18.9381 67.5693 18.4714 67.448 17.9487 67.448C17.4261 67.448 16.9594 67.5693 16.5487 67.812C16.1381 68.0453 15.8114 68.3767 15.5687 68.806C15.3261 69.2353 15.2047 69.7393 15.2047 70.318C15.2047 70.8873 15.3261 71.3913 15.5687 71.83C15.8114 72.2593 16.1381 72.5953 16.5487 72.838C16.9594 73.0713 17.4214 73.188 17.9347 73.188ZM26.6421 74.07C25.9421 74.07 25.3121 73.9113 24.7521 73.594C24.2014 73.2767 23.7674 72.838 23.4501 72.278C23.1327 71.7087 22.9741 71.0553 22.9741 70.318C22.9741 69.5713 23.1327 68.918 23.4501 68.358C23.7674 67.798 24.2014 67.364 24.7521 67.056C25.3121 66.7387 25.9421 66.58 26.6421 66.58C27.2861 66.58 27.8601 66.7247 28.3641 67.014C28.8774 67.3033 29.2834 67.728 29.5821 68.288C29.8901 68.8387 30.0441 69.5153 30.0441 70.318C30.0441 71.1113 29.8947 71.788 29.5961 72.348C29.2974 72.908 28.8914 73.3373 28.3781 73.636C27.8741 73.9253 27.2954 74.07 26.6421 74.07ZM26.7121 73.188C27.2347 73.188 27.7014 73.0713 28.1121 72.838C28.5321 72.5953 28.8587 72.2593 29.0921 71.83C29.3347 71.3913 29.4561 70.8873 29.4561 70.318C29.4561 69.7393 29.3347 69.2353 29.0921 68.806C28.8587 68.3767 28.5321 68.0453 28.1121 67.812C27.7014 67.5693 27.2347 67.448 26.7121 67.448C26.1987 67.448 25.7367 67.5693 25.3261 67.812C24.9154 68.0453 24.5887 68.3767 24.3461 68.806C24.1034 69.2353 23.9821 69.7393 23.9821 70.318C23.9821 70.8873 24.1034 71.3913 24.3461 71.83C24.5887 72.2593 24.9154 72.5953 25.3261 72.838C25.7367 73.0713 26.1987 73.188 26.7121 73.188ZM29.4841 74V71.788L29.5821 70.304L29.4421 68.82V63.612H30.4361V74H29.4841ZM39.1924 74.07C38.5018 74.07 37.9698 73.8833 37.5964 73.51C37.2231 73.1367 37.0364 72.6093 37.0364 71.928V65.026H38.0304V71.872C38.0304 72.3013 38.1378 72.6327 38.3524 72.866C38.5764 73.0993 38.8938 73.216 39.3044 73.216C39.7431 73.216 40.1071 73.09 40.3964 72.838L40.7464 73.552C40.5504 73.7293 40.3124 73.86 40.0324 73.944C39.7618 74.028 39.4818 74.07 39.1924 74.07ZM35.7204 67.476V66.65H40.2704V67.476H35.7204ZM42.5559 74V66.65H43.5079V68.652L43.4099 68.302C43.6153 67.742 43.9606 67.3173 44.4459 67.028C44.9313 66.7293 45.5333 66.58 46.2519 66.58V67.546C46.2146 67.546 46.1773 67.546 46.1399 67.546C46.1026 67.5367 46.0653 67.532 46.0279 67.532C45.2533 67.532 44.6466 67.77 44.2079 68.246C43.7693 68.7127 43.5499 69.38 43.5499 70.248V74H42.5559ZM51.2131 74.07C50.5877 74.07 50.0417 73.9533 49.5751 73.72C49.1084 73.4867 48.7444 73.1367 48.4831 72.67C48.2311 72.2033 48.1051 71.62 48.1051 70.92V66.65H49.0991V70.808C49.0991 71.592 49.2904 72.1847 49.6731 72.586C50.0651 72.978 50.6111 73.174 51.3111 73.174C51.8244 73.174 52.2677 73.0713 52.6411 72.866C53.0237 72.6513 53.3131 72.3433 53.5091 71.942C53.7144 71.5407 53.8171 71.06 53.8171 70.5V66.65H54.8111V74H53.8591V71.984L54.0131 72.348C53.7797 72.8893 53.4157 73.314 52.9211 73.622C52.4357 73.9207 51.8664 74.07 51.2131 74.07ZM60.6333 74.07C59.9053 74.07 59.252 73.9113 58.6733 73.594C58.104 73.2673 57.656 72.824 57.3293 72.264C57.0026 71.6947 56.8393 71.046 56.8393 70.318C56.8393 69.5807 57.0026 68.932 57.3293 68.372C57.656 67.812 58.104 67.3733 58.6733 67.056C59.252 66.7387 59.9053 66.58 60.6333 66.58C61.2586 66.58 61.8233 66.7013 62.3273 66.944C62.8313 67.1867 63.228 67.5507 63.5173 68.036L62.7753 68.54C62.5233 68.1667 62.2106 67.8913 61.8373 67.714C61.464 67.5367 61.058 67.448 60.6193 67.448C60.0966 67.448 59.6253 67.5693 59.2053 67.812C58.7853 68.0453 58.454 68.3767 58.2113 68.806C57.9686 69.2353 57.8473 69.7393 57.8473 70.318C57.8473 70.8967 57.9686 71.4007 58.2113 71.83C58.454 72.2593 58.7853 72.5953 59.2053 72.838C59.6253 73.0713 60.0966 73.188 60.6193 73.188C61.058 73.188 61.464 73.0993 61.8373 72.922C62.2106 72.7447 62.5233 72.474 62.7753 72.11L63.5173 72.614C63.228 73.09 62.8313 73.454 62.3273 73.706C61.8233 73.9487 61.2586 74.07 60.6333 74.07ZM66.1446 72.096L66.1726 70.822L70.7506 66.65H71.9686L68.7346 69.744L68.1746 70.22L66.1446 72.096ZM65.3606 74V63.612H66.3546V74H65.3606ZM71.0586 74L67.9926 70.178L68.6366 69.408L72.2766 74H71.0586ZM75.5241 74.07C74.9174 74.07 74.3434 73.986 73.8021 73.818C73.2607 73.6407 72.8361 73.4213 72.5281 73.16L72.9761 72.376C73.2747 72.6 73.6574 72.796 74.1241 72.964C74.5907 73.1227 75.0807 73.202 75.5941 73.202C76.2941 73.202 76.7981 73.0947 77.1061 72.88C77.4141 72.656 77.5681 72.362 77.5681 71.998C77.5681 71.7273 77.4794 71.5173 77.3021 71.368C77.1341 71.2093 76.9101 71.0927 76.6301 71.018C76.3501 70.934 76.0374 70.864 75.6921 70.808C75.3467 70.752 75.0014 70.6867 74.6561 70.612C74.3201 70.5373 74.0121 70.43 73.7321 70.29C73.4521 70.1407 73.2234 69.94 73.0461 69.688C72.8781 69.436 72.7941 69.1 72.7941 68.68C72.7941 68.2787 72.9061 67.9193 73.1301 67.602C73.3541 67.2847 73.6807 67.0373 74.1101 66.86C74.5487 66.6733 75.0807 66.58 75.7061 66.58C76.1821 66.58 76.6581 66.6453 77.1341 66.776C77.6101 66.8973 78.0021 67.0607 78.3101 67.266L77.8761 68.064C77.5494 67.84 77.1994 67.6813 76.8261 67.588C76.4527 67.4853 76.0794 67.434 75.7061 67.434C75.0434 67.434 74.5534 67.5507 74.2361 67.784C73.9281 68.008 73.7741 68.2973 73.7741 68.652C73.7741 68.932 73.8581 69.1513 74.0261 69.31C74.2034 69.4687 74.4321 69.5947 74.7121 69.688C75.0014 69.772 75.3141 69.842 75.6501 69.898C75.9954 69.954 76.3361 70.024 76.6721 70.108C77.0174 70.1827 77.3301 70.29 77.6101 70.43C77.8994 70.5607 78.1281 70.752 78.2961 71.004C78.4734 71.2467 78.5621 71.5687 78.5621 71.97C78.5621 72.3993 78.4407 72.7727 78.1981 73.09C77.9647 73.398 77.6194 73.6407 77.1621 73.818C76.7141 73.986 76.1681 74.07 75.5241 74.07Z" fill="#FCFCFC"/>
</svg>
